inDegrees=no
num_controls=7
num_derivatives=13
num_iterations=236
num_multipliers=7
num_parameters=0
num_slacks=7
num_states=26
objective=0.508501
objective_accelerations=0.040888
objective_balance=0.003603
objective_effort=0.029899
objective_height=0.321657
objective_ligament=0.112455
solver_duration=3118.675498
status=Solve_Succeeded
success=true
DataType=double
version=3
OpenSimVersion=4.5
endheader
time	/jointset/ground_pelvis/pelvis_tilt/value	/jointset/ground_pelvis/pelvis_tx/value	/jointset/ground_pelvis/pelvis_ty/value	/jointset/hip_l/hip_flexion_l/value	/jointset/hip_l/hip_adduction_l/value	/jointset/hip_l/hip_rotation_l/value	/jointset/back/lumbar_extension/value	/jointset/patellofemoral_l/patellar_flexion_l/value	/jointset/knee_l/knee_flexion_l/value	/jointset/knee_l/knee_adduction_l/value	/jointset/knee_l/knee_rotation_l/value	/jointset/ankle_l/ankle_angle_l/value	/jointset/subtalar_l/subtalar_angle_l/value	/jointset/ground_pelvis/pelvis_tilt/speed	/jointset/ground_pelvis/pelvis_tx/speed	/jointset/ground_pelvis/pelvis_ty/speed	/jointset/hip_l/hip_flexion_l/speed	/jointset/hip_l/hip_adduction_l/speed	/jointset/hip_l/hip_rotation_l/speed	/jointset/back/lumbar_extension/speed	/jointset/patellofemoral_l/patellar_flexion_l/speed	/jointset/knee_l/knee_flexion_l/speed	/jointset/knee_l/knee_adduction_l/speed	/jointset/knee_l/knee_rotation_l/speed	/jointset/ankle_l/ankle_angle_l/speed	/jointset/subtalar_l/subtalar_angle_l/speed	/forceset/tau_hip_flexion_l	/forceset/tau_hip_adduction_l	/forceset/tau_hip_rotation_l	/forceset/tau_knee_flexion_l	/forceset/tau_ankle_angle_l	/forceset/tau_subtalar_angle_l	/forceset/tau_lumbar_extension	lambda_cid13_p0	lambda_cid13_p1	lambda_cid13_p2	lambda_cid13_p3	lambda_cid13_p4	lambda_cid13_p5	lambda_cid14_p0	/jointset/ground_pelvis/pelvis_tilt/accel	/jointset/ground_pelvis/pelvis_tx/accel	/jointset/ground_pelvis/pelvis_ty/accel	/jointset/hip_l/hip_flexion_l/accel	/jointset/hip_l/hip_adduction_l/accel	/jointset/hip_l/hip_rotation_l/accel	/jointset/back/lumbar_extension/accel	/jointset/patellofemoral_l/patellar_flexion_l/accel	/jointset/knee_l/knee_flexion_l/accel	/jointset/knee_l/knee_adduction_l/accel	/jointset/knee_l/knee_rotation_l/accel	/jointset/ankle_l/ankle_angle_l/accel	/jointset/subtalar_l/subtalar_angle_l/accel	gamma_cid13_p0	gamma_cid13_p1	gamma_cid13_p2	gamma_cid13_p3	gamma_cid13_p4	gamma_cid13_p5	gamma_cid14_p0
1	-0.1687584744859912	-0.07505877465102528	0.7214990858785844	1.271825000462748	-0.3314780768289246	0.01935582671592249	-0.9599306572734049	1.203456983650428	1.203456983650593	-0.090555079561965	-0.1744732896569205	0.1819784707779684	0.02190189867299555	0.1078572275467236	0.02140654263840757	0.06873164884940265	-0.2962356769885876	0.001645653161467254	-0.07178005657158788	2.404844246287432e-05	-0.1773104585591951	-0.177310458559186	0.006828153493533639	0.003683292740181861	0.002055775660891585	0.00389668454071956	-0.4090444858878917	0.03909919979639358	-0.003875946661694496	-0.278314763977852	0.04363928260604424	0.032189354875469	0.4374887028399693	-36.18171388413668	-7.569436956348515	0.6665212378051893	15.06556776048573	-785.2123860529764	-56.96498875133821	-1.022702037729905	1.180144591838955	0.0188872684528245	1.281524626752839	-4.697464305939769	0.1095125582629979	-1.756059532232273	-0.05038166906293497	-4.353975394726436	-4.353975394726569	0.2421266443978804	0.1083684418974783	-1.090311140454957	-0.251880063307218	-1.231692980210281e-08	-6.43948927556355e-09	6.363558779973571e-08	8.084457431435793e-09	-2.547944015590614e-08	6.47186615996178e-08	-1.433507337428389e-08
1.01	-0.1676217792099217	-0.07484364869632018	0.7222503569074533	1.268628735135837	-0.3314553560715708	0.01854978172718464	-0.9599310154813544	1.201466116481904	1.201466116481996	-0.09047318189516101	-0.1744301583380082	0.1819446126355142	0.02192925913449026	0.1194393144296159	0.02163215064831441	0.0815219946291231	-0.3430029692995856	0.002913891773668818	-0.08942237818695807	3.998511071991204e-05	-0.2209039755313229	-0.2209039755313274	0.009547164155209713	0.004957747946076491	-0.008839190153882617	0.001589174295804935	-0.4093695772536247	0.03942468565591053	-0.0039208186863014	-0.27799510292318	0.04343893161121927	0.03235052331945101	0.4383771451008847	-36.27029133947965	-7.635003530871104	0.6896308618128105	14.86371856592266	-785.8678892077031	-57.0586571346252	-1.054253159938682	1.140862481212552	0.02642684105171219	1.277698057201274	-4.664201140149645	0.1377827903766729	-1.767350450590293	0.04793260697359877	-4.368186275996284	-4.368186275998198	0.2861471793580278	0.1392187629607828	-1.090858643013458	-0.2181281030265369	-2.100591138551744e-08	-1.681991315230587e-08	8.047044717702516e-08	1.949404738069009e-08	-3.565771227314282e-08	6.94118097874422e-08	-1.811348494672591e-08
1.02	-0.1663705387160837	-0.07462586080675758	0.7231295130948433	1.264965228996521	-0.3314194922725597	0.01756750712740874	-0.9599271440682313	1.199038084858152	1.19903808485817	-0.09036422234127553	-0.1743738355264317	0.1818014509667071	0.02193395617394716	0.130766271100435	0.02193892960990793	0.09430868055361742	-0.3896838394693772	0.004274261492991185	-0.1070259787783674	0.0008699726671179582	-0.2647433496050639	-0.2647433496050796	0.01224053090910801	0.00632159127298351	-0.01980492960964863	-0.000635999866827687	-0.409694668619366	0.03975017151541755	-0.003965690710859879	-0.2776754418685094	0.04323858061639222	0.03251169176341962	0.4392655873617943	-36.37064210072511	-7.69714458039869	0.7106361316329047	14.7170474934999	-786.6751091367277	-57.14016415682644	-1.093295364152559	1.129118549424286	0.03512145879018699	1.280792655707616	-4.680179877698523	0.1279387796871502	-1.748315327440112	0.1124285085652594	-4.403146815049054	-4.403146815048697	0.2369978628423368	0.1262460660999366	-1.104465868653274	-0.2354128468508088	-2.535388373989752e-08	-2.904069725836486e-08	1.014295753212248e-07	1.996012491665709e-08	-3.816325498991342e-08	7.800427156437049e-08	-2.350822548820567e-08
1.03	-0.165007136568068	-0.07440435158491836	0.7241363979218668	1.260835380152926	-0.3313696243700102	0.01640957685071607	-0.959909687759019	1.196171200377165	1.196171200377188	-0.09022847001849373	-0.1743036160598438	0.1815488982879594	0.02191697344085043	0.1418880872132873	0.02240148020941722	0.1070558333200926	-0.4362687867322917	0.005706980143408191	-0.1245403120304257	0.002879371148490233	-0.3085980844168568	-0.3085980844169164	0.01490637076080132	0.007713608251636462	-0.03065552394831799	-0.00273281342622737	-0.4112005879441273	0.04016935864717355	-0.004028386110194577	-0.2764493335675639	0.04276583170884846	0.03287694141433233	0.4414917408878994	-36.54434514250823	-7.852291525346494	0.7661349983524657	14.12705779935206	-787.7242576793896	-57.25923678572374	-1.140214363506207	1.099800366702143	0.05761074338783505	1.269800724672658	-4.645084002639573	0.1520783513847885	-1.750053521117377	0.2839078137872926	-4.371311671209379	-4.371311671216211	0.2808281261335598	0.1444026194120492	-1.067846224507659	-0.1926632184669343	-2.965756008173641e-08	-4.128026055043729e-08	1.22430787840597e-07	2.03145339586109e-08	-4.059050454953636e-08	8.663652225547334e-08	-2.891945918243073e-08
1.04	-0.1635332988140268	-0.07417705908051273	0.725270379104066	1.256240195466289	-0.3313052012922239	0.01507709100209337	-0.9598643950058172	1.192866833576667	1.192866833576695	-0.09006616908123076	-0.1742197318023365	0.181189341664218	0.02187985305056317	0.1528533923055967	0.02309558612318868	0.1197279515887628	-0.4827510080772738	0.00718529654046083	-0.1419370931636342	0.006437261464423977	-0.3522398135072494	-0.3522398135073548	0.01755025380452375	0.009054549456851841	-0.04120571860834256	-0.004663531304922294	-0.4127065072689038	0.04058854577891985	-0.004091081509481002	-0.2752232252666203	0.04229308280130394	0.03324219106523239	0.4437178944139923	-36.72998538924439	-8.004027707463189	0.8195815082190528	13.5904235352785	-788.9289269420556	-57.36700021218111	-1.195415928861966	1.097816345315669	0.08143252164265022	1.26578575614663	-4.659634694112052	0.1370583290142681	-1.724804903670173	0.4221268754775311	-4.360545670769016	-4.360545670768997	0.2326065012481742	0.1160309114124025	-1.044385932924269	-0.2021937107098472	-3.310340077928917e-08	-5.144801443616046e-08	1.369821903219861e-07	2.161089136630332e-08	-4.654998962075806e-08	8.741345371344138e-08	-3.204769223409709e-08
